<svg id="Layer_1" data-name="Layer 1" xmlns="http://www.w3.org/2000/svg" viewBox="0 0 197.87 252.27"><defs><style>.cls-1{fill:#59c7d5;}.cls-2{fill:#ed3293;}.cls-3{fill:#fff;}</style></defs><title>white logo</title><path class="cls-1" d="M192.43,376.14c39.49-50.85,78-102.46,118.29-155.26H261c3.35-11.34,6.34-21.47,9.44-31.94h64.66L374,137.28H219.07c-9.7,44-19.34,87.75-29.2,132.51h30c-10.14,35.53-20,70-29.86,104.55Z" transform="translate(-176.1 -123.86)"/><path class="cls-2" d="M178.66,362.72c39.49-50.84,78-102.45,118.3-155.25H247.27l9.43-31.94h64.67l38.84-51.67H205.3c-9.69,44-19.33,87.76-29.2,132.52h30c-10.15,35.52-20,70-29.86,104.55Z" transform="translate(-176.1 -123.86)"/><path class="cls-3" d="M185.72,369.43c39.49-50.85,78-102.46,118.3-155.26H254.33l9.43-31.94h64.67l38.84-51.66H212.36c-9.69,44-19.33,87.76-29.2,132.52h30c-10.15,35.52-20,70-29.86,104.55Z" transform="translate(-176.1 -123.86)"/></svg>