<svg id="Layer_1" data-name="Layer 1" xmlns="http://www.w3.org/2000/svg" viewBox="0 0 299.87 390.25"><defs><style>.cls-1{fill:#59c7d5;}.cls-2{fill:#ed3293;}</style></defs><title>$FLASH</title><path class="cls-1" d="M376.63,718.37c61.09-78.65,120.64-158.49,183-240.16H482.76c5.18-17.55,9.8-33.22,14.59-49.41h100l60.09-79.92H417.84c-15,68.07-29.91,135.75-45.17,205h46.38c-15.69,55-30.94,108.34-46.19,161.73Z" transform="translate(-357.6 -328.13)"/><path class="cls-2" d="M361.56,697.63c61.09-78.66,120.64-158.5,183-240.17H467.69l14.59-49.41h100l60.09-79.92H402.77c-15,68.07-29.91,135.75-45.17,205H404c-15.7,55-30.95,108.34-46.2,161.73Z" transform="translate(-357.6 -328.13)"/><path d="M369.37,708c61.08-78.66,120.64-158.49,183-240.17H475.49l14.59-49.41h100l60.09-79.92H410.58c-15,68.07-29.92,135.75-45.17,205h46.38c-15.69,55-30.94,108.35-46.19,161.74Z" transform="translate(-357.6 -328.13)"/></svg>