<svg xmlns="http://www.w3.org/2000/svg" width="218.659" height="218.66" viewBox="0 0 218.659 218.66">
  <g id="FLASH2" transform="translate(0)">
    <path id="Subtraction_1" data-name="Subtraction 1" d="M-1822.67-997.34a110.131,110.131,0,0,1-22.034-2.221,108.774,108.774,0,0,1-20.522-6.371,109.347,109.347,0,0,1-18.571-10.08,110.123,110.123,0,0,1-16.181-13.35,110.117,110.117,0,0,1-13.35-16.181,109.347,109.347,0,0,1-10.08-18.571,108.779,108.779,0,0,1-6.37-20.522A110.126,110.126,0,0,1-1932-1106.67a110.127,110.127,0,0,1,2.221-22.034,108.809,108.809,0,0,1,6.37-20.522,109.352,109.352,0,0,1,10.08-18.571,110.1,110.1,0,0,1,13.35-16.181,110.108,110.108,0,0,1,16.181-13.35,109.339,109.339,0,0,1,18.571-10.08,108.778,108.778,0,0,1,20.522-6.37A110.128,110.128,0,0,1-1822.67-1216a110.129,110.129,0,0,1,22.034,2.221,108.768,108.768,0,0,1,20.522,6.37,109.346,109.346,0,0,1,18.571,10.08,110.109,110.109,0,0,1,16.181,13.35,110.122,110.122,0,0,1,13.35,16.181,109.356,109.356,0,0,1,10.08,18.571,108.791,108.791,0,0,1,6.37,20.522,110.135,110.135,0,0,1,2.221,22.034,110.137,110.137,0,0,1-2.221,22.034,108.777,108.777,0,0,1-6.37,20.522,109.344,109.344,0,0,1-10.08,18.571,110.113,110.113,0,0,1-13.35,16.181,110.131,110.131,0,0,1-16.181,13.35,109.344,109.344,0,0,1-18.571,10.08,108.78,108.78,0,0,1-20.522,6.371,110.137,110.137,0,0,1-22.034,2.222Zm-25.02-163.011c-3,13.644-6.1,27.72-8.84,40.139l-.22,1q-2.709,12.294-5.449,24.731h14.91c-3.021,10.663-6.064,21.29-9.008,31.567v.006l-.083.289c-1.891,6.6-3.847,13.433-5.758,20.138l1.21.85c12.511-16.106,24.543-32,37.281-48.818,7-9.249,14.245-18.813,21.52-28.342h-24.7c.845-2.854,1.646-5.571,2.421-8.2l.01-.034.014-.047c.767-2.6,1.492-5.058,2.245-7.6H-1790l19.31-25.681Z" transform="translate(1932 1216)" fill="#d89c74"/>
  </g>
</svg>
