<svg id="Layer_1" data-name="Layer 1" xmlns="http://www.w3.org/2000/svg"   fill="current" viewBox="0 0 330 420"><title>chevron1</title><path id="_Path_" data-name="&lt;Path&gt;" d="M25.61,190.61L165,51.21l139.4,139.39a15,15,0,0,0,21.21-21.21l-150-150a15,15,0,0,0-21.21,0l-150,150A15,15,0,0,0,25.61,190.61Z" transform="translate(0 -15)"/><path id="_Path_2" data-name="&lt;Path&gt;" d="M175.6,139.39a15,15,0,0,0-21.21,0l-150,150a15,15,0,1,0,21.21,21.21L165,171.21l139.4,139.39a15,15,0,0,0,21.21-21.21Z" transform="translate(0 -15)"/><path id="_Path_3" data-name="&lt;Path&gt;" d="M175.6,259.39a15,15,0,0,0-21.21,0l-150,150a15,15,0,1,0,21.21,21.21L165,291.21l139.4,139.39a15,15,0,0,0,21.21-21.21Z" transform="translate(0 -15)"/></svg>